<svg id="Layer_1" enable-background="new 0 0 512 512" height="512" viewBox="0 0 512 512" width="512" xmlns="http://www.w3.org/2000/svg"><g><path d="m29.57 267.2h135.09v19.62h-135.09z" fill="#f7941d"/><path d="m163.67 83.32h107.56v406.42h-107.56z" fill="#3eb7ff"/><path d="m163.67 22.26h107.56v38.59h-107.56z" fill="#3eb7ff"/><path d="m29.57 286.96h135.09v202.78h-135.09z" fill="#f9d11f"/><path d="m482.43 460.71-132.24 27.67-6.99-33.59-1.29-6.06-31.81-151.93 91.8-19.26 5.14-1.07 35.23-7.35z" fill="#fe3745"/><path d="m442.27 269.12-34.52 7.21-4.28.93-93.37 19.54-5.49-25.96 94.44-19.83 2.71-.57 35.02-7.35z" fill="#f9d11f"/><path d="m409.25 111.35-38.73 8.13-7.07 1.43-.35.07-86.09 18.04-5.78-27.6 90.08-18.9.93-.22 5.28-1.07 35.88-7.49z" fill="#f9d11f"/><path d="m436.78 243.09-132.17 27.67-4.21-20.04-3.71-17.76-19.68-93.94 86.44-18.04 7.07-1.5 38.73-8.13z" fill="#fe3745"/><path d="m29.57 132.53h135.09v134.52h-135.09z" fill="#f9d11f"/><g><path d="m30.21 104.29h134.45v28.25h-134.45z" fill="#f7941d"/></g><path d="m164.67 132.53v134.52h-135.1v-14.05c81.1-14.48 104.14-78.32 110.34-120.47z" fill="#e5be1a"/><path d="m164.67 104.29v28.25h-24.75c1.71-11.48 2.14-21.4 2.21-28.25z" fill="#e28117"/><g><g><path d="m66.88 166.34h60.41v66.91h-60.41z" fill="#fff"/></g></g><path d="m164.67 267.2v19.62h-47.22c.21-7.99 0-14.69-.36-19.62z" fill="#e28117"/><path d="m117.45 286.96h47.22v202.78h-135.1v-40.8c74.75-36.45 87.02-118.19 87.88-161.98z" fill="#e5be1a"/><g><path d="m66.88 320.91h60.41v133.03h-60.41z" fill="#fff"/></g><path d="m127.29 320.91v133.03h-60.41v-31.24c30.24-29.6 42.87-68.97 47.79-101.78h12.62z" fill="#e6e7e8"/><path d="m127.29 177.68v55.56h-46.08c22.76-14.76 37.09-35.01 46.08-55.56z" fill="#e6e7e8"/><path d="m271.23 22.26v467.48h-107.56v-90.66c59.92-90.23 74.54-231.89 77.6-315.2 0-.21 0-.36.07-.57.29-8.06.43-15.62.57-22.47.29-17.9.07-31.38-.14-38.59h29.46z" fill="#2facea"/><path d="m163.67 60.85h107.56v23.04h-107.56z" fill="#f9d11f"/><path d="m198.83 317.06h37.16v77.96h-37.16z" fill="#fff"/><path d="m198.83 130.39h37.16v77.96h-37.16z" fill="#fff"/><path d="m235.99 317.06v77.96h-37.16v-18.12c19.83-18.97 23.04-44.94 23.04-59.84z" fill="#e6e7e8"/><path d="m235.99 130.39v77.96h-37.16v-16.9c24.04-12.13 25.46-46.36 24.89-61.06z" fill="#e6e7e8"/><path d="m271.23 60.85v23.04h-30.1l.78-23.04z" fill="#e5be1a"/><path d="m436.78 243.09-132.17 27.68-4.21-20.04-3.71-17.76c54.78-27.1 66.69-75.46 66.76-111.98l7.06-1.5 38.73-8.13z" fill="#ea2d3f"/><path d="m389.85 215.34-53.36 11.2-.92-4.56-2.43-11.7-9.13-43.51 34.74-7.28 8.84-1.85 9.77-2.07z" fill="#fff"/><path d="m409.25 111.35-38.73 8.13-7.06 1.43-.36.07c.43-12.27-.14-22.11-.86-28.67l5.28-1.07 35.88-7.49z" fill="#e5be1a"/><path d="m482.43 460.71-132.24 27.68-6.99-33.6c79.17-28.03 74.47-122.18 63.84-178.32l35.24-7.35z" fill="#ea2d3f"/><path d="m432.07 429.75-48.22 10.06-2.35-11.13-5.21-24.96-16.26-77.61 31.24-6.56 10.49-2.21 6.49-1.35z" fill="#fff"/><path d="m442.27 269.12-35.24 7.35c-1.21-7.56-2.42-16.9-5.28-26.03l35.02-7.35z" fill="#e5be1a"/><g fill="#e6e7e8"><path d="m389.85 215.34-53.35 11.2-.93-4.57-2.43-11.7c24.47-9.77 26.68-35.38 25.61-50.79l8.84-1.85 9.77-2.07z"/><path d="m432.07 429.75-48.22 10.06-2.35-11.13c19.33-36.45 14.98-82.24 9.77-109.13l10.48-2.21 6.49-1.36z"/></g></g></svg>